<?xml version="1.0" encoding="UTF-8"?>
<svg xmlns="http://www.w3.org/2000/svg" xmlns:xlink="http://www.w3.org/1999/xlink" viewBox="0 0 50 50" width="50px" height="50px">
<g id="surface17387718">
<path style=" stroke:none;fill-rule:nonzero;fill:rgb(100%,100%,100%);fill-opacity:1;" d="M 36 3.992188 C 41.511719 3.992188 46 8.480469 46 13.992188 L 46 29.617188 C 44.230469 28.589844 42.183594 28 40 28 C 38.207031 28 36.5 28.398438 34.96875 29.113281 C 34.730469 28.960938 34.480469 28.800781 34.214844 28.628906 C 33.074219 27.902344 31.601562 27.851562 30.410156 28.5 L 28.324219 29.964844 C 27.761719 30.363281 27.039062 30.441406 26.402344 30.175781 C 25.414062 29.761719 23.894531 28.960938 22.464844 27.53125 C 21.039062 26.105469 20.238281 24.585938 19.824219 23.59375 C 19.558594 22.960938 19.636719 22.238281 20.03125 21.671875 L 21.496094 19.589844 C 22.148438 18.398438 22.097656 16.925781 21.367188 15.785156 C 20.570312 14.535156 19.953125 13.574219 19.558594 12.957031 C 19.210938 12.414062 18.632812 12.058594 18.003906 12.03125 C 14.441406 11.878906 12.996094 14.640625 12.996094 15.441406 C 12.996094 16 12.238281 22.683594 19.777344 30.222656 C 23.042969 33.488281 26.144531 35.195312 28.660156 36.082031 C 28.234375 37.3125 28 38.628906 28 40 C 28 42.175781 28.585938 44.226562 29.613281 45.988281 L 14 45.988281 C 8.488281 45.988281 4 41.5 4 35.988281 L 4 13.988281 C 4 8.480469 8.488281 3.988281 14 3.988281 Z M 36 3.992188 "/>
<path style=" stroke:none;fill-rule:nonzero;fill:rgb(80.000001%,80.000001%,80.000001%);fill-opacity:1;" d="M 45.898438 40 C 45.898438 40.601562 45.5 41 44.898438 41 L 41 41 L 41 44.898438 C 41 45.5 40.601562 45.898438 40 45.898438 C 39.398438 45.898438 39 45.5 39 44.898438 L 39 41 L 35.101562 41 C 34.5 41 34.101562 40.601562 34.101562 40 C 34.101562 39.398438 34.5 39 35.101562 39 L 39 39 L 39 35.101562 C 39 34.5 39.398438 34.101562 40 34.101562 C 40.601562 34.101562 41 34.5 41 35.101562 L 41 39 L 44.898438 39 C 45.5 39 45.898438 39.398438 45.898438 40 Z M 50 40 C 50 45.5 45.5 50 40 50 C 34.5 50 30 45.5 30 40 C 30 34.5 34.5 30 40 30 C 45.5 30 50 34.5 50 40 Z M 48 40 C 48 35.601562 44.398438 32 40 32 C 35.601562 32 32 35.601562 32 40 C 32 44.398438 35.601562 48 40 48 C 44.398438 48 48 44.398438 48 40 Z M 48 40 "/>
</g>
</svg>
